<?xml version="1.0" encoding="UTF-8"?>
<svg class="product-render"  viewBox="0 0 1200 990" fill="none" xmlns="http://www.w3.org/2000/svg">
  <rect width="1200" height="990" fill="#0a0a0a"/>

  <!-- Grid background -->
  <pattern id="il_grid" width="40" height="40" patternUnits="userSpaceOnUse">
    <line x1="40" y1="0" x2="40" y2="40" stroke="rgba(255,255,255,.015)" stroke-width="0.5"/>
    <line x1="0" y1="40" x2="40" y2="40" stroke="rgba(255,255,255,.015)" stroke-width="0.5"/>
  </pattern>
  

  <!-- Floor -->
  
  

  <!-- ═══════════════════════════════════════════════ -->
  <!--  LEFT: EXPLODED POD CUTAWAY                    -->
  <!-- ═══════════════════════════════════════════════ -->
  <g transform="translate(120, 180)">
    <!-- Label -->
    <text x="130" y="-20" text-anchor="middle" font-family="Outfit,sans-serif" font-size="18" fill="#ffffff" letter-spacing="4" font-weight="600">PVA DISSOLVABLE POD</text>

    <!-- Pod body (PVA shell — translucent effect) -->
    <ellipse cx="130" cy="120" rx="70" ry="90" fill="#14121a" stroke="#3a3640" stroke-width="1.5"/>
    <!-- Inner translucent PVA layer -->
    <ellipse cx="130" cy="120" rx="63" ry="83" fill="#16131e" stroke="rgba(180,160,220,.08)" stroke-width="1"/>
    <!-- Translucent sheen (PVA film effect) -->
    <ellipse cx="115" cy="85" rx="30" ry="40" fill="rgba(180,160,220,.04)" stroke="none"/>
    <ellipse cx="145" cy="140" rx="20" ry="30" fill="rgba(160,140,200,.02)" stroke="none"/>
    <!-- Highlight arc -->
    <path d="M80 70 Q95 45, 130 38" stroke="rgba(255,255,255,.06)" stroke-width="1" fill="none"/>

    <!-- Cross-section cut line (dashed) -->
    <path d="M60 120 L200 120" stroke="rgba(255,255,255,.15)" stroke-width="0.8" stroke-dasharray="6 4"/>
    
    <!-- Powder fill visible in lower half (cross-section effect) -->
    <clipPath id="il_podLower">
      <ellipse cx="130" cy="120" rx="60" ry="80"/>
    </clipPath>
    <g clip-path="url(#il_podLower)">
      <rect x="70" y="120" width="120" height="85" fill="rgba(160,140,200,.06)"/>
      <!-- Powder granules -->
      <circle cx="95" cy="140" r="2" fill="rgba(180,160,220,.1)"/>
      <circle cx="110" cy="150" r="1.5" fill="rgba(180,160,220,.08)"/>
      <circle cx="125" cy="135" r="2.5" fill="rgba(180,160,220,.12)"/>
      <circle cx="140" cy="148" r="1.8" fill="rgba(180,160,220,.09)"/>
      <circle cx="155" cy="138" r="2" fill="rgba(180,160,220,.1)"/>
      <circle cx="105" cy="162" r="1.5" fill="rgba(180,160,220,.08)"/>
      <circle cx="130" cy="165" r="2" fill="rgba(180,160,220,.11)"/>
      <circle cx="150" cy="158" r="1.8" fill="rgba(180,160,220,.09)"/>
      <circle cx="118" cy="175" r="1.5" fill="rgba(180,160,220,.07)"/>
      <circle cx="142" cy="172" r="2" fill="rgba(180,160,220,.1)"/>
    </g>
    
    <!-- PVA shell label -->
    <text x="130" y="75" text-anchor="middle" font-family="DM Sans,sans-serif" font-size="12" fill="#ffffff" letter-spacing="1.5" font-weight="600">PVA FILM</text>
    <text x="130" y="87" text-anchor="middle" font-family="DM Sans,sans-serif" font-size="12" fill="#ffffff" letter-spacing="1.5" font-weight="600">WATER-SOLUBLE</text>
    
    <!-- Powder core label -->
    <text x="130" y="155" text-anchor="middle" font-family="DM Sans,sans-serif" font-size="12" fill="rgba(180,160,220,.5)" letter-spacing="1.5" font-weight="600">CLEANING</text>
    <text x="130" y="167" text-anchor="middle" font-family="DM Sans,sans-serif" font-size="12" fill="rgba(180,160,220,.5)" letter-spacing="1.5" font-weight="600">CONCENTRATE</text>

    <!-- Annotation lines -->
    <!-- Shell annotation -->
    <line x1="195" y1="70" x2="225" y2="55" stroke="rgba(255,255,255,.12)" stroke-width="0.5" stroke-dasharray="3 2"/>
    <circle cx="225" cy="55" r="1.5" fill="rgba(255,255,255,.15)"/>
    <text x="233" y="53" font-family="DM Sans,sans-serif" font-size="12" fill="#ffffff" letter-spacing="1.5">DISSOLVABLE PVA</text>
    <text x="233" y="65" font-family="DM Sans,sans-serif" font-size="12" fill="#ffffff" letter-spacing="1.5">NO CONTACT WITH CHEMICALS</text>

    <!-- Dosage annotation -->
    <line x1="195" y1="155" x2="225" y2="165" stroke="rgba(255,255,255,.12)" stroke-width="0.5" stroke-dasharray="3 2"/>
    <circle cx="225" cy="165" r="1.5" fill="rgba(255,255,255,.15)"/>
    <text x="233" y="163" font-family="DM Sans,sans-serif" font-size="12" fill="#ffffff" letter-spacing="1.5">1 POD = 10 LITRES</text>
    <text x="233" y="175" font-family="DM Sans,sans-serif" font-size="12" fill="#ffffff" letter-spacing="1.5">PRECISELY DOSED EVERY TIME</text>
  </g>

  <!-- Step ① -->
  <text x="250" y="420" text-anchor="middle" font-family="Outfit,sans-serif" font-size="18" fill="#ffffff" letter-spacing="2" font-weight="600">① OPEN</text>

  <!-- ═══════════════════════════════════════════════ -->
  <!--  CENTER: CLEANING VESSEL WITH POD DISSOLVING   -->
  <!-- ═══════════════════════════════════════════════ -->
  <g transform="translate(580, 200)">
    <!-- Label -->
    <text x="120" y="-20" text-anchor="middle" font-family="Outfit,sans-serif" font-size="18" fill="#ffffff" letter-spacing="4" font-weight="600">CLEANING VESSEL</text>

    <!-- Vessel body (cylindrical pot) -->
    <ellipse cx="120" cy="10" rx="100" ry="20" fill="#1a1c20" stroke="#3a3e42" stroke-width="1.5"/>
    <rect x="20" y="10" width="200" height="300" fill="#141618" stroke="#3a3e42" stroke-width="1.5"/>
    <ellipse cx="120" cy="310" rx="100" ry="20" fill="#111315" stroke="#3a3e42" stroke-width="1.5"/>
    <!-- Vessel highlights -->
    <line x1="30" y1="20" x2="30" y2="300" stroke="rgba(255,255,255,.04)" stroke-width="1"/>
    <line x1="210" y1="20" x2="210" y2="300" stroke="rgba(255,255,255,.03)" stroke-width="1"/>
    <!-- Handle left -->
    <path d="M20 60 Q-5 60, -5 90 Q-5 120, 20 120" stroke="#3a3e42" stroke-width="3" fill="none" stroke-linecap="round"/>
    <!-- Handle right -->
    <path d="M220 60 Q245 60, 245 90 Q245 120, 220 120" stroke="#3a3e42" stroke-width="3" fill="none" stroke-linecap="round"/>

    <!-- Water fill -->
    <clipPath id="il_vesselClip">
      <rect x="22" y="60" width="196" height="250"/>
    </clipPath>
    <g clip-path="url(#il_vesselClip)">
      <rect x="22" y="60" width="196" height="252" fill="rgba(255,255,255,.02)"/>
      <!-- Water surface -->
      <path d="M22 60 Q70 55, 120 60 Q170 65, 218 60" stroke="rgba(255,255,255,.08)" stroke-width="0.8" fill="none">
        <animate attributeName="d" 
          values="M22 60 Q70 55, 120 60 Q170 65, 218 60;M22 60 Q70 65, 120 60 Q170 55, 218 60;M22 60 Q70 55, 120 60 Q170 65, 218 60" 
          dur="4s" repeatCount="indefinite"/>
      </path>
    </g>

    <!-- Pod dropping in (mid-dissolve) -->
    <ellipse cx="120" cy="130" rx="22" ry="30" fill="#18141e" stroke="rgba(180,160,220,.12)" stroke-width="1" opacity=".6">
      <animate attributeName="opacity" values=".6;.3;.6" dur="3s" repeatCount="indefinite"/>
      <animate attributeName="rx" values="22;18;22" dur="3s" repeatCount="indefinite"/>
      <animate attributeName="ry" values="30;25;30" dur="3s" repeatCount="indefinite"/>
    </ellipse>
    <!-- Dissolving particles radiating outward -->
    <circle cx="90" cy="120" r="2" fill="rgba(180,160,220,.1)">
      <animate attributeName="cx" values="110;80;110" dur="3s" repeatCount="indefinite"/>
      <animate attributeName="opacity" values=".1;.04;.1" dur="3s" repeatCount="indefinite"/>
    </circle>
    <circle cx="150" cy="115" r="1.5" fill="rgba(180,160,220,.08)">
      <animate attributeName="cx" values="130;160;130" dur="3.5s" repeatCount="indefinite"/>
      <animate attributeName="opacity" values=".08;.03;.08" dur="3.5s" repeatCount="indefinite"/>
    </circle>
    <circle cx="100" cy="145" r="1.8" fill="rgba(180,160,220,.09)">
      <animate attributeName="cx" values="115;85;115" dur="2.8s" repeatCount="indefinite"/>
      <animate attributeName="cy" values="140;155;140" dur="2.8s" repeatCount="indefinite"/>
    </circle>
    <circle cx="145" cy="150" r="2" fill="rgba(180,160,220,.1)">
      <animate attributeName="cx" values="125;155;125" dur="3.2s" repeatCount="indefinite"/>
      <animate attributeName="cy" values="142;158;142" dur="3.2s" repeatCount="indefinite"/>
    </circle>
    <circle cx="105" cy="100" r="1.5" fill="rgba(180,160,220,.07)">
      <animate attributeName="cx" values="115;90;115" dur="4s" repeatCount="indefinite"/>
      <animate attributeName="cy" values="105;95;105" dur="4s" repeatCount="indefinite"/>
    </circle>
    <circle cx="138" cy="98" r="1.3" fill="rgba(180,160,220,.06)">
      <animate attributeName="cx" values="128;148;128" dur="3.6s" repeatCount="indefinite"/>
    </circle>

    <!-- Diffusion rings from pod -->
    <ellipse cx="120" cy="130" rx="30" ry="15" fill="none" stroke="rgba(180,160,220,.06)" stroke-width="0.8">
      <animate attributeName="rx" values="25;70;25" dur="3s" repeatCount="indefinite"/>
      <animate attributeName="ry" values="12;35;12" dur="3s" repeatCount="indefinite"/>
      <animate attributeName="opacity" values=".06;0;.06" dur="3s" repeatCount="indefinite"/>
    </ellipse>
    <ellipse cx="120" cy="130" rx="30" ry="15" fill="none" stroke="rgba(180,160,220,.05)" stroke-width="0.6">
      <animate attributeName="rx" values="25;70;25" dur="3s" begin="1s" repeatCount="indefinite"/>
      <animate attributeName="ry" values="12;35;12" dur="3s" begin="1s" repeatCount="indefinite"/>
      <animate attributeName="opacity" values=".05;0;.05" dur="3s" begin="1s" repeatCount="indefinite"/>
    </ellipse>

    <!-- Solution tinting the water (subtle, lower half) -->
    <rect x="22" y="180" width="196" height="130" fill="rgba(160,140,200,.02)" rx="2"/>

    <!-- (lid removed) -->

    <!-- Line out port (right side) -->
    <rect x="218" y="140" width="20" height="16" rx="2" fill="#1e2226" stroke="#3a3e42" stroke-width="1"/>
    <circle cx="238" cy="148" r="5" fill="#141618" stroke="#3a3e42" stroke-width="1"/>
  </g>

  <!-- Step ② -->
  <text x="700" y="555" text-anchor="middle" font-family="Outfit,sans-serif" font-size="18" fill="#ffffff" letter-spacing="2" font-weight="600">② DROP IN VESSEL</text>

  <!-- Drop arrow (pod falling in) -->
  <path d="M700 175 L700 195" stroke="rgba(255,255,255,.15)" stroke-width="1.5" stroke-linecap="round" marker-end="url(#il_arrowDown)"/>
  <defs>
    <marker id="il_arrowDown" markerWidth="6" markerHeight="6" refX="3" refY="3" orient="auto">
      <polygon points="0,0 6,3 0,6" fill="rgba(255,255,255,.15)"/>
    </marker>
  </defs>

  <!-- ═══════════════════════════════════════════════ -->
  <!--  RIGHT: BEER LINES WITH SOLUTION FLOWING       -->
  <!-- ═══════════════════════════════════════════════ -->

  <!-- Line from vessel to beer lines -->
  <path d="M818 348 L730 348 Q745 348, 745 333 L745 280 Q745 265, 760 265 L1050 265" 
        stroke="#3a3e42" stroke-width="8" fill="none" stroke-linecap="round" stroke-linejoin="round"/>
  <path d="M818 348 L730 348 Q742 348, 742 336 L742 283 Q742 268, 757 268 L1050 268" 
        stroke="#1e2226" stroke-width="5" fill="none" stroke-linecap="round" stroke-linejoin="round"/>

  <!-- Second line -->
  <path d="M818 358 L730 358 Q745 358, 745 373 L745 310 Q745 298, 760 298 L1050 298" 
        stroke="#3a3e42" stroke-width="6" fill="none" stroke-linecap="round" stroke-linejoin="round"/>
  <path d="M818 358 L730 358 Q742 358, 742 370 L742 313 Q742 301, 757 301 L1050 301" 
        stroke="#1e2226" stroke-width="3.5" fill="none" stroke-linecap="round" stroke-linejoin="round"/>

  <!-- Flow arrows along lines -->
  <polygon points="870,268 862,263 862,273" fill="rgba(255,255,255,.15)"/>
  <polygon points="950,268 942,263 942,273" fill="rgba(255,255,255,.12)"/>
  <polygon points="1020,268 1012,263 1012,273" fill="rgba(255,255,255,.1)"/>
  <polygon points="870,301 862,296 862,306" fill="rgba(255,255,255,.12)"/>
  <polygon points="950,301 942,296 942,306" fill="rgba(255,255,255,.1)"/>

  <!-- Solution colour flowing through (animated) -->
  <rect x="810" y="263" width="60" height="10" fill="rgba(160,140,200,.04)" rx="2">
    <animate attributeName="x" values="770;1050" dur="4s" repeatCount="indefinite"/>
    <animate attributeName="opacity" values=".04;.01;.04" dur="4s" repeatCount="indefinite"/>
  </rect>
  <rect x="770" y="263" width="40" height="10" fill="rgba(160,140,200,.03)" rx="2">
    <animate attributeName="x" values="770;1050" dur="4s" begin="1.5s" repeatCount="indefinite"/>
    <animate attributeName="opacity" values=".03;.01;.03" dur="4s" begin="1.5s" repeatCount="indefinite"/>
  </rect>

  <text x="880" y="245" font-family="Outfit,sans-serif" font-size="18" fill="#ffffff" letter-spacing="4" font-weight="600">BEER LINES</text>

  <!-- Step ③ -->
  <text x="930" y="340" text-anchor="middle" font-family="Outfit,sans-serif" font-size="18" fill="#ffffff" letter-spacing="2" font-weight="600">③ SOLUTION FILLS LINES</text>

  <!-- Beer taps (simplified, right edge) -->
  <g transform="translate(1060, 210)">
    <!-- Tap tower -->
    <rect x="0" y="0" width="30" height="65" rx="3" fill="#1e2226" stroke="#3a3e42" stroke-width="1"/>
    <line x1="4" y1="5" x2="4" y2="60" stroke="rgba(255,255,255,.04)" stroke-width="0.5"/>
    <!-- Tap top -->
    <ellipse cx="15" cy="0" rx="17" ry="5" fill="#222628" stroke="#3a3e42" stroke-width="0.8"/>
    <!-- Handle -->
    <rect x="28" y="12" width="6" height="30" rx="2" fill="#222628" stroke="#4a4e52" stroke-width="0.8"/>
    <rect x="27" y="10" width="8" height="6" rx="1.5" fill="#2a2e32" stroke="#4a4e52" stroke-width="0.5"/>
    <!-- Nozzle -->
    <rect x="9" y="65" width="12" height="12" rx="1.5" fill="#1e2226" stroke="#3a3e42" stroke-width="0.8"/>
    <!-- Bar surface -->
    <rect x="-15" y="77" width="80" height="8" rx="1.5" fill="#1e2226" stroke="#3a3e42" stroke-width="0.8"/>
  </g>
  <!-- Second tap -->
  <g transform="translate(1110, 210)">
    <rect x="0" y="0" width="30" height="65" rx="3" fill="#1e2226" stroke="#3a3e42" stroke-width="1"/>
    <line x1="4" y1="5" x2="4" y2="60" stroke="rgba(255,255,255,.04)" stroke-width="0.5"/>
    <ellipse cx="15" cy="0" rx="17" ry="5" fill="#222628" stroke="#3a3e42" stroke-width="0.8"/>
    <rect x="28" y="12" width="6" height="30" rx="2" fill="#222628" stroke="#4a4e52" stroke-width="0.8"/>
    <rect x="27" y="10" width="8" height="6" rx="1.5" fill="#2a2e32" stroke="#4a4e52" stroke-width="0.5"/>
    <rect x="9" y="65" width="12" height="12" rx="1.5" fill="#1e2226" stroke="#3a3e42" stroke-width="0.8"/>
  </g>
  <text x="1060" y="310" text-anchor="middle" font-family="Outfit,sans-serif" font-size="18" fill="#ffffff" letter-spacing="4" font-weight="600">TAPS</text>

  <!-- ═══════════════════════════════════════════════ -->
  <!--  BOTTOM LEFT: GHS COMPARISON                   -->
  <!-- ═══════════════════════════════════════════════ -->
  <g transform="translate(110, 720)">
    <text x="232" y="0" text-anchor="middle" font-family="Outfit,sans-serif" font-size="16" fill="#ffffff" letter-spacing="4" font-weight="600">SAFETY COMPARISON</text>

    <!-- Traditional chemicals box -->
    <rect x="0" y="16" width="210" height="140" rx="6" fill="#111111" stroke="#3a3e42" stroke-width="1.5"/>
    <text x="105" y="42" text-anchor="middle" font-family="Outfit,sans-serif" font-size="14" fill="#ffffff" letter-spacing="3" font-weight="600">TRADITIONAL</text>
    <!-- GHS05 corrosive pictogram (diamond with drops on hand/surface) -->
    <g transform="translate(75, 52)">
      <!-- Diamond border -->
      <polygon points="30,0 60,30 30,60 0,30" fill="none" stroke="rgba(255,255,255,.3)" stroke-width="1.5"/>
      <!-- Test tube pouring -->
      <rect x="16" y="12" width="8" height="18" rx="1" fill="none" stroke="rgba(255,255,255,.25)" stroke-width="1.2" transform="rotate(-30, 20, 21)"/>
      <!-- Drops falling -->
      <circle cx="30" cy="24" r="1.5" fill="rgba(255,255,255,.2)"/>
      <circle cx="33" cy="28" r="1.2" fill="rgba(255,255,255,.15)"/>
      <circle cx="28" cy="30" r="1" fill="rgba(255,255,255,.12)"/>
      <!-- Hand outline being corroded -->
      <path d="M22 36 Q26 32, 30 36 Q34 32, 38 36 L38 42 Q30 46, 22 42 Z" fill="none" stroke="rgba(255,255,255,.2)" stroke-width="1"/>
      <!-- Surface being corroded -->
      <line x1="20" y1="46" x2="40" y2="46" stroke="rgba(255,255,255,.15)" stroke-width="1.5"/>
    </g>
    <text x="105" y="120" text-anchor="middle" font-family="DM Sans,sans-serif" font-size="12" fill="#ffffff" letter-spacing="1.5" font-weight="500">GHS05 CORROSIVE</text>
    <text x="105" y="135" text-anchor="middle" font-family="DM Sans,sans-serif" font-size="12" fill="#ffffff" letter-spacing="1.5" font-weight="500">AGGRESSIVE CHEMICALS</text>

    <!-- Arrow -->
    <text x="232" y="92" text-anchor="middle" font-family="Outfit,sans-serif" font-size="22" fill="#ffffff">→</text>

    <!-- InnLine box -->
    <rect x="255" y="16" width="210" height="140" rx="6" fill="#111111" stroke="rgba(180,160,220,.2)" stroke-width="1.5"/>
    <text x="360" y="42" text-anchor="middle" font-family="Outfit,sans-serif" font-size="14" fill="#ffffff" letter-spacing="3" font-weight="600">INNLINE DILUTED</text>
    <!-- Shield with checkmark (centered in box: box center=360, shield width=36, so x=342) -->
    <g transform="translate(342, 52)">
      <path d="M18 0 L36 8 L36 28 Q36 42, 18 48 Q0 42, 0 28 L0 8 Z" fill="none" stroke="rgba(255,255,255,.35)" stroke-width="1.5"/>
      <path d="M10 24 L16 30 L28 16" stroke="rgba(255,255,255,.5)" stroke-width="2.5" fill="none" stroke-linecap="round" stroke-linejoin="round"/>
    </g>
    <text x="360" y="120" text-anchor="middle" font-family="DM Sans,sans-serif" font-size="12" fill="#ffffff" letter-spacing="1.5" font-weight="600">NO HAZARD CLASSIFICATION</text>
    <text x="360" y="135" text-anchor="middle" font-family="DM Sans,sans-serif" font-size="12" fill="#ffffff" letter-spacing="1.5" font-weight="600">WHEN DILUTED TO RTU</text>
  </g>

  <!-- ═══════════════════════════════════════════════ -->
  <!--  BOTTOM RIGHT: DOSING COMPARISON               -->
  <!-- ═══════════════════════════════════════════════ -->
  <g transform="translate(625, 720)">
    <text x="232" y="0" text-anchor="middle" font-family="Outfit,sans-serif" font-size="16" fill="#ffffff" letter-spacing="4" font-weight="600">DOSING ACCURACY</text>

    <!-- Manual: inconsistent bars -->
    <rect x="0" y="16" width="210" height="140" rx="6" fill="#111111" stroke="#3a3e42" stroke-width="1.5"/>
    <text x="105" y="42" text-anchor="middle" font-family="Outfit,sans-serif" font-size="14" fill="#ffffff" letter-spacing="3" font-weight="600">MANUAL DOSING</text>
    <!-- Uneven bars -->
    <rect x="22" y="56" width="22" height="55" rx="2" fill="rgba(255,255,255,.08)"/>
    <rect x="50" y="74" width="22" height="37" rx="2" fill="rgba(255,255,255,.08)"/>
    <rect x="78" y="48" width="22" height="63" rx="2" fill="rgba(255,255,255,.08)"/>
    <rect x="106" y="64" width="22" height="47" rx="2" fill="rgba(255,255,255,.08)"/>
    <rect x="134" y="80" width="22" height="31" rx="2" fill="rgba(255,255,255,.08)"/>
    <rect x="162" y="52" width="22" height="59" rx="2" fill="rgba(255,255,255,.08)"/>
    <text x="105" y="135" text-anchor="middle" font-family="DM Sans,sans-serif" font-size="12" fill="#ffffff" letter-spacing="1.5" font-weight="500">INCONSISTENT</text>

    <!-- Arrow -->
    <text x="232" y="92" text-anchor="middle" font-family="Outfit,sans-serif" font-size="22" fill="#ffffff">→</text>

    <!-- InnLine: perfect consistent bars -->
    <rect x="255" y="16" width="210" height="140" rx="6" fill="#111111" stroke="rgba(180,160,220,.2)" stroke-width="1.5"/>
    <text x="360" y="42" text-anchor="middle" font-family="Outfit,sans-serif" font-size="14" fill="#ffffff" letter-spacing="3" font-weight="600">1 POD = 10L SOLUTION</text>
    <!-- Even bars -->
    <rect x="275" y="56" width="22" height="50" rx="2" fill="rgba(180,160,220,.14)"/>
    <rect x="303" y="56" width="22" height="50" rx="2" fill="rgba(180,160,220,.14)"/>
    <rect x="331" y="56" width="22" height="50" rx="2" fill="rgba(180,160,220,.14)"/>
    <rect x="359" y="56" width="22" height="50" rx="2" fill="rgba(180,160,220,.14)"/>
    <rect x="387" y="56" width="22" height="50" rx="2" fill="rgba(180,160,220,.14)"/>
    <rect x="415" y="56" width="22" height="50" rx="2" fill="rgba(180,160,220,.14)"/>
    <!-- Target line -->
    <line x1="270" y1="56" x2="442" y2="56" stroke="rgba(180,160,220,.2)" stroke-width="0.8" stroke-dasharray="5 3"/>
    <text x="360" y="135" text-anchor="middle" font-family="DM Sans,sans-serif" font-size="12" fill="#ffffff" letter-spacing="1.5" font-weight="600">PERFECT EVERY TIME</text>
  </g>

  <!-- Step ④ -->
  <text x="600" y="638" text-anchor="middle" font-family="Outfit,sans-serif" font-size="18" fill="#ffffff" letter-spacing="2" font-weight="600">④ CLEAN IN ONE DOSE — NO MEASURING, NO CONTACT</text>

  <!-- ═══ BRANDING ═══ -->
  <text x="600" y="930" text-anchor="middle" font-family="Outfit,sans-serif" font-size="48" fill="#ffffff" letter-spacing="12" font-weight="700">INNLINE</text>
  <text x="600" y="960" text-anchor="middle" font-family="DM Sans,sans-serif" font-size="16" fill="#ffffff" letter-spacing="5">POD-FORMAT BEER LINE CLEANER</text>

  <defs>
    <linearGradient id="il_floorG" x1="600" y1="950" x2="600" y2="1200" gradientUnits="userSpaceOnUse">
      <stop offset="0%" stop-color="#111111"/>
      <stop offset="100%" stop-color="#0A0A0A"/>
    </linearGradient>
  </defs>
</svg>
