<?xml version="1.0" encoding="UTF-8"?>
<svg class="product-render"  viewBox="0 0 1200 960" fill="none" xmlns="http://www.w3.org/2000/svg">
  <rect width="1200" height="960" fill="#0a0a0a"/>

  <!-- Grid background -->
  <pattern id="ip_grid" width="40" height="40" patternUnits="userSpaceOnUse">
    <line x1="40" y1="0" x2="40" y2="40" stroke="rgba(255,255,255,.015)" stroke-width="0.5"/>
    <line x1="0" y1="40" x2="40" y2="40" stroke="rgba(255,255,255,.015)" stroke-width="0.5"/>
  </pattern>
  

  <!-- Floor -->
  <line x1="0" y1="950" x2="1200" y2="950" stroke="rgba(255,255,255,.08)" stroke-width="1"/>
  <rect x="0" y="750" width="1200" height="210" fill="url(#ip_floorG)"/>

  <!-- ═══ KEG (left side) ═══ -->
  <g transform="translate(100, 340)">
    <!-- Keg body -->
    <ellipse cx="85" cy="0" rx="70" ry="18" fill="#161a1e" stroke="#3a3e42" stroke-width="1.5"/>
    <rect x="15" y="0" width="140" height="280" fill="#161a1e" stroke="#3a3e42" stroke-width="1.5"/>
    <ellipse cx="85" cy="280" rx="70" ry="18" fill="#131518" stroke="#3a3e42" stroke-width="1.5"/>
    <!-- Vertical highlight -->
    <line x1="30" y1="10" x2="30" y2="270" stroke="rgba(255,255,255,.04)" stroke-width="1"/>
    <line x1="140" y1="10" x2="140" y2="270" stroke="rgba(255,255,255,.03)" stroke-width="1"/>
    <!-- Bands -->
    <rect x="15" y="45" width="140" height="6" rx="1" fill="#1e2226" stroke="#3a3e42" stroke-width="0.5"/>
    <rect x="15" y="230" width="140" height="6" rx="1" fill="#1e2226" stroke="#3a3e42" stroke-width="0.5"/>
    <!-- Top fitting -->
    <rect x="70" y="-18" width="30" height="20" rx="2" fill="#1e2226" stroke="#444" stroke-width="1"/>
    <circle cx="85" cy="-18" r="8" fill="#161a1e" stroke="#444" stroke-width="1"/>
    <circle cx="85" cy="-18" r="3" fill="#222628" stroke="#555" stroke-width="0.5"/>
    <!-- Coupler -->
    <rect x="76" y="-38" width="18" height="22" rx="2" fill="#222628" stroke="#4a4e52" stroke-width="1"/>
    <!-- Label -->
    <rect x="45" y="110" width="80" height="50" rx="3" fill="#1e2226" stroke="rgba(255,255,255,.06)" stroke-width="0.5"/>
    <text x="85" y="128" text-anchor="middle" font-family="Outfit,sans-serif" font-size="16" fill="#ffffff" letter-spacing="2">BEER</text>
    <text x="85" y="150" text-anchor="middle" font-family="Outfit,sans-serif" font-size="16" fill="#ffffff" letter-spacing="2">KEG</text>
  </g>
  <text x="185" y="670" text-anchor="middle" font-family="Outfit,sans-serif" font-size="20" fill="#ffffff" letter-spacing="3">KEG</text>

  <!-- ═══ BEER LINES ═══ -->
  <!-- Line from keg coupler up and across -->
  <path d="M185 302 L185 260 Q185 245 200 245 L1000 245 Q1015 245 1015 230 L1015 190" 
        stroke="#3a3e42" stroke-width="10" fill="none" stroke-linecap="round" stroke-linejoin="round"/>
  <!-- Inner line (beer visible) -->
  <path d="M185 302 L185 260 Q185 248 200 248 L1000 248 Q1012 248 1012 233 L1012 190" 
        stroke="#1e2226" stroke-width="6" fill="none" stroke-linecap="round" stroke-linejoin="round"/>
  <!-- Line highlight -->
  <path d="M185 302 L185 260 Q185 246 200 246 L1000 246 Q1013 246 1013 231 L1013 190" 
        stroke="rgba(255,255,255,.04)" stroke-width="1" fill="none" stroke-linecap="round" stroke-linejoin="round"/>

  <!-- Second beer line (parallel, slightly below) -->
  <path d="M185 312 L185 290 Q185 275 200 275 L1000 275 Q1015 275 1015 260 L1015 218 Q1015 205 1030 205 L1040 205" 
        stroke="#3a3e42" stroke-width="8" fill="none" stroke-linecap="round" stroke-linejoin="round"/>
  <path d="M185 312 L185 290 Q185 278 200 278 L1000 278 Q1012 278 1012 263 L1012 221 Q1012 208 1027 208 L1040 208" 
        stroke="#1e2226" stroke-width="5" fill="none" stroke-linecap="round" stroke-linejoin="round"/>

  <!-- Flow arrows on lines -->
  <polygon points="400,248 392,243 392,253" fill="rgba(255,255,255,.15)"/>
  <polygon points="550,248 542,243 542,253" fill="rgba(255,255,255,.12)"/>
  <polygon points="400,278 392,273 392,283" fill="rgba(255,255,255,.12)"/>
  <polygon points="550,278 542,273 542,283" fill="rgba(255,255,255,.1)"/>

  <!-- Beer line label -->
  <text x="470" y="225" text-anchor="middle" font-family="Outfit,sans-serif" font-size="16" fill="#ffffff" letter-spacing="3">BEER LINES</text>

  <!-- ═══ INNPULSE S28 UNIT ═══ -->
  <g transform="translate(580, 90)">
    <!-- Unit body -->
    <rect x="0" y="0" width="160" height="110" rx="4" fill="#161a1e" stroke="#3a3e42" stroke-width="1.5"/>
    <!-- Inner bevel -->
    <line x1="5" y1="5" x2="155" y2="5" stroke="rgba(255,255,255,.05)" stroke-width="1"/>
    <line x1="5" y1="105" x2="155" y2="105" stroke="rgba(255,255,255,.03)" stroke-width="1"/>
    <line x1="5" y1="5" x2="5" y2="105" stroke="rgba(255,255,255,.05)" stroke-width="1"/>
    <line x1="155" y1="5" x2="155" y2="105" stroke="rgba(255,255,255,.05)" stroke-width="1"/>
    <!-- Screws -->
    <circle cx="14" cy="14" r="2.5" fill="#1e2226" stroke="#444" stroke-width="0.8"/>
    <circle cx="146" cy="14" r="2.5" fill="#1e2226" stroke="#444" stroke-width="0.8"/>
    <circle cx="14" cy="96" r="2.5" fill="#1e2226" stroke="#444" stroke-width="0.8"/>
    <circle cx="146" cy="96" r="2.5" fill="#1e2226" stroke="#444" stroke-width="0.8"/>
    <!-- Label plate -->
    <rect x="25" y="22" width="110" height="32" rx="2" fill="#1e2226" stroke="#444" stroke-width="1"/>
    <line x1="25" y1="22" x2="135" y2="22" stroke="rgba(255,255,255,.08)" stroke-width="0.5"/>
    <text x="80" y="39" text-anchor="middle" font-family="Outfit,sans-serif" font-size="14" font-weight="700" fill="#ffffff" letter-spacing="2">INNPULSE</text>
    <text x="80" y="49" text-anchor="middle" font-family="DM Sans,sans-serif" font-size="10" fill="#ffffff" letter-spacing="1">S28 ELECTRONIC UNIT</text>
    <!-- Status LED -->
    <circle cx="42" cy="72" r="2.5" fill="#bbb" opacity=".7">
      <animate attributeName="opacity" values=".7;.2;.7" dur="2s" repeatCount="indefinite"/>
    </circle>
    <text x="50" y="75" font-family="DM Sans,sans-serif" font-size="6" fill="#ffffff" letter-spacing="1">PULSE ACTIVE</text>
    <!-- Frequency display -->
    <rect x="95" y="64" width="45" height="18" rx="2" fill="#111111" stroke="#333" stroke-width="0.5"/>
    <path d="M100 73 l3-4 3 8 3-8 3 8 3-8 3 8 3-4" stroke="rgba(255,255,255,.4)" stroke-width="0.8" fill="none">
      <animate attributeName="d" 
        values="M100 73 l3-4 3 8 3-8 3 8 3-8 3 8 3-4;M100 73 l3-2 3 4 3-4 3 4 3-4 3 4 3-2;M100 73 l3-4 3 8 3-8 3 8 3-8 3 8 3-4" 
        dur="1.5s" repeatCount="indefinite"/>
    </path>
    <!-- Wire exit ports -->
    <rect x="30" y="104" width="14" height="8" rx="1" fill="#1e2226" stroke="#3a3e42" stroke-width="0.8"/>
    <rect x="116" y="104" width="14" height="8" rx="1" fill="#1e2226" stroke="#3a3e42" stroke-width="0.8"/>
  </g>

  <!-- ═══ WIRES DROP DOWN TO BEER LINE THEN COIL AROUND IT ═══ -->
  <!-- Left wire: drops from port (617,202) straight down to line (y~245), then coils as helix around pipe -->
  <!-- Back half of coils (behind pipe) drawn first -->
  <g opacity=".4">
    <ellipse cx="610" cy="248" rx="4" ry="9" fill="none" stroke="#4a4e52" stroke-width="1.5"/>
    <ellipse cx="620" cy="248" rx="4" ry="9" fill="none" stroke="#4a4e52" stroke-width="1.5"/>
    <ellipse cx="630" cy="248" rx="4" ry="9" fill="none" stroke="#4a4e52" stroke-width="1.5"/>
    <ellipse cx="640" cy="248" rx="4" ry="9" fill="none" stroke="#4a4e52" stroke-width="1.5"/>
    <ellipse cx="650" cy="248" rx="4" ry="9" fill="none" stroke="#4a4e52" stroke-width="1.5"/>
  </g>

  <!-- Left wire vertical drop -->
  <line x1="617" y1="202" x2="617" y2="239" stroke="#4a4e52" stroke-width="1.8" stroke-linecap="round"/>
  <line x1="617" y1="202" x2="617" y2="239" stroke="rgba(255,255,255,.06)" stroke-width="0.5"/>

  <!-- Left coil: front arcs (visible over the pipe) — helix wrapping effect -->
  <path d="M605 248 C605 240, 615 238, 615 248 C615 258, 605 256, 605 248" stroke="#5a5e62" stroke-width="1.5" fill="none"/>
  <path d="M615 248 C615 240, 625 238, 625 248 C625 258, 615 256, 615 248" stroke="#5a5e62" stroke-width="1.5" fill="none"/>
  <path d="M625 248 C625 240, 635 238, 635 248 C635 258, 625 256, 625 248" stroke="#5a5e62" stroke-width="1.5" fill="none"/>
  <path d="M635 248 C635 240, 645 238, 645 248 C645 258, 635 256, 635 248" stroke="#5a5e62" stroke-width="1.5" fill="none"/>
  <path d="M645 248 C645 240, 655 238, 655 248 C655 258, 645 256, 645 248" stroke="#5a5e62" stroke-width="1.5" fill="none"/>
  <!-- Coil highlight -->
  <path d="M607 244 C608 240, 614 239, 614 244" stroke="rgba(255,255,255,.08)" stroke-width="0.5" fill="none"/>
  <path d="M627 244 C628 240, 634 239, 634 244" stroke="rgba(255,255,255,.08)" stroke-width="0.5" fill="none"/>
  <path d="M647 244 C648 240, 654 239, 654 244" stroke="rgba(255,255,255,.08)" stroke-width="0.5" fill="none"/>

  <!-- Right wire vertical drop -->
  <line x1="703" y1="202" x2="703" y2="239" stroke="#4a4e52" stroke-width="1.8" stroke-linecap="round"/>
  <line x1="703" y1="202" x2="703" y2="239" stroke="rgba(255,255,255,.06)" stroke-width="0.5"/>

  <!-- Right coil: back arcs -->
  <g opacity=".4">
    <ellipse cx="695" cy="248" rx="4" ry="9" fill="none" stroke="#4a4e52" stroke-width="1.5"/>
    <ellipse cx="705" cy="248" rx="4" ry="9" fill="none" stroke="#4a4e52" stroke-width="1.5"/>
    <ellipse cx="715" cy="248" rx="4" ry="9" fill="none" stroke="#4a4e52" stroke-width="1.5"/>
    <ellipse cx="725" cy="248" rx="4" ry="9" fill="none" stroke="#4a4e52" stroke-width="1.5"/>
    <ellipse cx="735" cy="248" rx="4" ry="9" fill="none" stroke="#4a4e52" stroke-width="1.5"/>
  </g>
  <!-- Right coil: front arcs -->
  <path d="M690 248 C690 240, 700 238, 700 248 C700 258, 690 256, 690 248" stroke="#5a5e62" stroke-width="1.5" fill="none"/>
  <path d="M700 248 C700 240, 710 238, 710 248 C710 258, 700 256, 700 248" stroke="#5a5e62" stroke-width="1.5" fill="none"/>
  <path d="M710 248 C710 240, 720 238, 720 248 C720 258, 710 256, 710 248" stroke="#5a5e62" stroke-width="1.5" fill="none"/>
  <path d="M720 248 C720 240, 730 238, 730 248 C730 258, 720 256, 720 248" stroke="#5a5e62" stroke-width="1.5" fill="none"/>
  <path d="M730 248 C730 240, 740 238, 740 248 C740 258, 730 256, 730 248" stroke="#5a5e62" stroke-width="1.5" fill="none"/>
  <path d="M692 244 C693 240, 699 239, 699 244" stroke="rgba(255,255,255,.08)" stroke-width="0.5" fill="none"/>
  <path d="M712 244 C713 240, 719 239, 719 244" stroke="rgba(255,255,255,.08)" stroke-width="0.5" fill="none"/>
  <path d="M732 244 C733 240, 739 239, 739 244" stroke="rgba(255,255,255,.08)" stroke-width="0.5" fill="none"/>

  <!-- ═══ EM PULSE ANIMATION ═══ -->
  <!-- Pulses radiating left from unit -->
  <circle cx="610" cy="258" r="15" fill="none" stroke="rgba(255,255,255,.12)" stroke-width="1">
    <animate attributeName="r" values="15;80;160" dur="2s" repeatCount="indefinite"/>
    <animate attributeName="opacity" values=".12;.04;0" dur="2s" repeatCount="indefinite"/>
  </circle>
  <circle cx="610" cy="258" r="15" fill="none" stroke="rgba(255,255,255,.1)" stroke-width="0.8">
    <animate attributeName="r" values="15;80;160" dur="2s" begin="0.7s" repeatCount="indefinite"/>
    <animate attributeName="opacity" values=".1;.03;0" dur="2s" begin="0.7s" repeatCount="indefinite"/>
  </circle>
  <circle cx="610" cy="258" r="15" fill="none" stroke="rgba(255,255,255,.08)" stroke-width="0.8">
    <animate attributeName="r" values="15;80;160" dur="2s" begin="1.4s" repeatCount="indefinite"/>
    <animate attributeName="opacity" values=".08;.02;0" dur="2s" begin="1.4s" repeatCount="indefinite"/>
  </circle>

  <!-- Pulses radiating right from unit -->
  <circle cx="730" cy="258" r="15" fill="none" stroke="rgba(255,255,255,.12)" stroke-width="1">
    <animate attributeName="r" values="15;80;160" dur="2s" begin="0.3s" repeatCount="indefinite"/>
    <animate attributeName="opacity" values=".12;.04;0" dur="2s" begin="0.3s" repeatCount="indefinite"/>
  </circle>
  <circle cx="730" cy="258" r="15" fill="none" stroke="rgba(255,255,255,.1)" stroke-width="0.8">
    <animate attributeName="r" values="15;80;160" dur="2s" begin="1s" repeatCount="indefinite"/>
    <animate attributeName="opacity" values=".1;.03;0" dur="2s" begin="1s" repeatCount="indefinite"/>
  </circle>

  <!-- ═══ LINE CUTAWAY (showing particles suspended) ═══ -->
  <g transform="translate(323, 410)">
    <!-- Cutaway container -->
    <rect x="0" y="0" width="460" height="170" rx="4" fill="#111111" stroke="#3a3e42" stroke-width="1.2"/>
    <!-- Label -->
    <text x="230" y="-12" text-anchor="middle" font-family="Outfit,sans-serif" font-size="22" fill="#ffffff" letter-spacing="3">LINE CROSS-SECTION</text>
    
    <!-- Line wall (top) -->
    <rect x="12" y="20" width="436" height="10" rx="2" fill="#222628" stroke="#3a3e42" stroke-width="0.8"/>
    <!-- Line wall (bottom) -->
    <rect x="12" y="140" width="436" height="10" rx="2" fill="#222628" stroke="#3a3e42" stroke-width="0.8"/>
    <!-- Beer fill -->
    <rect x="12" y="30" width="436" height="110" fill="rgba(255,255,255,.02)"/>
    
    <!-- Divider: left = WITHOUT InnPulse, right = WITH -->
    <line x1="230" y1="14" x2="230" y2="156" stroke="rgba(255,255,255,.08)" stroke-width="1" stroke-dasharray="4 3"/>
    
    <!-- LEFT SIDE: Without - particles stuck to walls -->
    <text x="115" y="48" text-anchor="middle" font-family="DM Sans,sans-serif" font-size="12" fill="#ffffff" letter-spacing="1">WITHOUT</text>
    <!-- Biofilm on walls (top) -->
    <rect x="18" y="30" width="205" height="5" rx="1" fill="rgba(255,255,255,.06)"/>
    <rect x="30" y="30" width="50" height="4" rx="1" fill="rgba(255,255,255,.08)"/>
    <rect x="100" y="30" width="65" height="5" rx="1" fill="rgba(255,255,255,.09)"/>
    <rect x="180" y="30" width="35" height="4" rx="1" fill="rgba(255,255,255,.07)"/>
    <!-- Biofilm on walls (bottom) -->
    <rect x="18" y="135" width="205" height="5" rx="1" fill="rgba(255,255,255,.06)"/>
    <rect x="35" y="135" width="60" height="5" rx="1" fill="rgba(255,255,255,.09)"/>
    <rect x="120" y="135" width="55" height="4" rx="1" fill="rgba(255,255,255,.08)"/>
    <!-- Stuck particles -->
    <circle cx="42" cy="34" r="2.5" fill="rgba(255,255,255,.1)"/>
    <circle cx="68" cy="33" r="2" fill="rgba(255,255,255,.08)"/>
    <circle cx="110" cy="34" r="3" fill="rgba(255,255,255,.12)"/>
    <circle cx="142" cy="33" r="2.2" fill="rgba(255,255,255,.09)"/>
    <circle cx="185" cy="34" r="2.5" fill="rgba(255,255,255,.1)"/>
    <circle cx="48" cy="138" r="2.5" fill="rgba(255,255,255,.1)"/>
    <circle cx="85" cy="138" r="2.2" fill="rgba(255,255,255,.08)"/>
    <circle cx="135" cy="139" r="2.8" fill="rgba(255,255,255,.11)"/>
    <circle cx="175" cy="138" r="2" fill="rgba(255,255,255,.09)"/>
    
    <!-- RIGHT SIDE: With InnPulse - particles floating free -->
    <text x="345" y="48" text-anchor="middle" font-family="DM Sans,sans-serif" font-size="12" fill="#ffffff" letter-spacing="1">WITH INNPULSE</text>
    <!-- Floating particles (animated, suspended in center) -->
    <circle cx="265" cy="75" r="2" fill="rgba(255,255,255,.1)">
      <animate attributeName="cy" values="75;68;82;75" dur="3s" repeatCount="indefinite"/>
    </circle>
    <circle cx="290" cy="90" r="2.5" fill="rgba(255,255,255,.08)">
      <animate attributeName="cy" values="90;80;95;90" dur="3.5s" repeatCount="indefinite"/>
    </circle>
    <circle cx="315" cy="70" r="2" fill="rgba(255,255,255,.1)">
      <animate attributeName="cy" values="70;82;64;70" dur="2.8s" repeatCount="indefinite"/>
    </circle>
    <circle cx="340" cy="85" r="2.2" fill="rgba(255,255,255,.09)">
      <animate attributeName="cy" values="85;76;90;85" dur="3.2s" repeatCount="indefinite"/>
    </circle>
    <circle cx="365" cy="78" r="2" fill="rgba(255,255,255,.07)">
      <animate attributeName="cy" values="78;90;72;78" dur="4s" repeatCount="indefinite"/>
    </circle>
    <circle cx="390" cy="95" r="2.5" fill="rgba(255,255,255,.08)">
      <animate attributeName="cy" values="95;80;100;95" dur="2.5s" repeatCount="indefinite"/>
    </circle>
    <circle cx="410" cy="72" r="1.8" fill="rgba(255,255,255,.1)">
      <animate attributeName="cy" values="72;85;66;72" dur="3.8s" repeatCount="indefinite"/>
    </circle>
    <circle cx="430" cy="88" r="2" fill="rgba(255,255,255,.07)">
      <animate attributeName="cy" values="88;74;92;88" dur="3s" repeatCount="indefinite"/>
    </circle>
    <!-- Small EM wave indicators -->
    <path d="M255 80 Q262 66 270 80 Q278 94 286 80" stroke="rgba(255,255,255,.06)" stroke-width="0.5" fill="none">
      <animate attributeName="opacity" values=".06;.12;.06" dur="1.5s" repeatCount="indefinite"/>
    </path>
    <path d="M375 85 Q382 71 390 85 Q398 99 406 85" stroke="rgba(255,255,255,.06)" stroke-width="0.5" fill="none">
      <animate attributeName="opacity" values=".06;.12;.06" dur="1.5s" begin="0.5s" repeatCount="indefinite"/>
    </path>
  </g>

  <!-- Pointer from cutaway to main line -->
  <line x1="553" y1="410" x2="553" y2="285" stroke="rgba(255,255,255,.1)" stroke-width="0.8" stroke-dasharray="4 3"/>
  <circle cx="553" cy="285" r="2" fill="rgba(255,255,255,.12)"/>

  <!-- ═══ BEER TAP (right side) ═══ -->
  <g transform="translate(960, 100)">
    <!-- Bar top surface -->
    <rect x="-20" y="120" width="200" height="12" rx="2" fill="#1e2226" stroke="#3a3e42" stroke-width="1"/>
    <!-- Drip tray -->
    <rect x="20" y="132" width="90" height="8" rx="1" fill="#161a1e" stroke="#333" stroke-width="0.8"/>
    <!-- Tap tower -->
    <rect x="45" y="40" width="40" height="82" rx="3" fill="#1e2226" stroke="#3a3e42" stroke-width="1.5"/>
    <line x1="50" y1="45" x2="50" y2="118" stroke="rgba(255,255,255,.04)" stroke-width="1"/>
    <line x1="80" y1="45" x2="80" y2="118" stroke="rgba(255,255,255,.03)" stroke-width="1"/>
    <!-- Tap top -->
    <ellipse cx="65" cy="40" rx="22" ry="6" fill="#222628" stroke="#3a3e42" stroke-width="1"/>
    <!-- Badge -->
    <ellipse cx="65" cy="28" rx="14" ry="14" fill="#161a1e" stroke="#444" stroke-width="1"/>
    <circle cx="65" cy="28" r="8" fill="#1e2226" stroke="rgba(255,255,255,.06)" stroke-width="0.5"/>
    <!-- Handle -->
    <rect x="80" y="50" width="8" height="45" rx="3" fill="#222628" stroke="#4a4e52" stroke-width="1"/>
    <rect x="78" y="46" width="12" height="8" rx="2" fill="#2a2e32" stroke="#4a4e52" stroke-width="0.8"/>
    <!-- Nozzle -->
    <rect x="58" y="122" width="14" height="16" rx="2" fill="#1e2226" stroke="#3a3e42" stroke-width="1"/>
    <ellipse cx="65" cy="138" rx="5" ry="2" fill="#161a1e" stroke="#333" stroke-width="0.5"/>
  </g>
  <text x="1080" y="280" text-anchor="middle" font-family="Outfit,sans-serif" font-size="24" fill="#ffffff" letter-spacing="3">TAP</text>

  <!-- ═══ STEP LABELS ═══ -->
  <!-- Step 1 -->
  <text x="660" y="80" text-anchor="middle" font-family="Outfit,sans-serif" font-size="20" fill="#ffffff" letter-spacing="2">① UNIT CLAMPS TO LINE</text>

  <!-- Step 2 -->
  <text x="660" y="335" text-anchor="middle" font-family="Outfit,sans-serif" font-size="20" fill="#ffffff" letter-spacing="2">② EM FIELD PULSES THROUGH LINES</text>

  <!-- Step 3 -->
  <text x="553" y="620" text-anchor="middle" font-family="Outfit,sans-serif" font-size="20" fill="#ffffff" letter-spacing="2">③ PARTICLES STAY SUSPENDED</text>
  <text x="553" y="644" text-anchor="middle" font-family="DM Sans,sans-serif" font-size="16" fill="#ffffff" letter-spacing="2">EXTENDING CLEAN CYCLES TO 28 DAYS</text>

  <!-- 7→28 callout -->
  <g transform="translate(850, 440)">
    <!-- Outer glow -->
    <rect x="-4" y="-4" width="188" height="88" rx="8" fill="none" stroke="rgba(255,255,255,.06)" stroke-width="1"/>
    <rect x="-2" y="-2" width="184" height="84" rx="6" fill="none" stroke="rgba(255,255,255,.04)" stroke-width="1"/>
    <!-- Box -->
    <rect x="0" y="0" width="180" height="80" rx="4" fill="#131517" stroke="rgba(255,255,255,.2)" stroke-width="1.5"/>
    <!-- Top accent line -->
    <line x1="20" y1="1" x2="160" y2="1" stroke="rgba(255,255,255,.12)" stroke-width="1"/>
    <text x="90" y="22" text-anchor="middle" font-family="Outfit,sans-serif" font-size="12" fill="#ffffff" letter-spacing="4" font-weight="600">CLEAN CYCLE</text>
    <text x="42" y="56" text-anchor="middle" font-family="Outfit,sans-serif" font-size="28" fill="#ffffff" font-weight="700" text-decoration="line-through">7</text>
    <text x="90" y="56" text-anchor="middle" font-family="Outfit,sans-serif" font-size="28" fill="#ffffff">→</text>
    <text x="138" y="56" text-anchor="middle" font-family="Outfit,sans-serif" font-size="28" fill="#ffffff" font-weight="800">28</text>
    <text x="90" y="73" text-anchor="middle" font-family="DM Sans,sans-serif" font-size="14" fill="#ffffff" letter-spacing="3">DAYS</text>
  </g>

  <!-- ═══ BRANDING ═══ -->
  <text x="600" y="900" text-anchor="middle" font-family="Outfit,sans-serif" font-size="48" fill="#ffffff" letter-spacing="12" font-weight="700">INNPULSE</text>
  <text x="600" y="930" text-anchor="middle" font-family="DM Sans,sans-serif" font-size="16" fill="#ffffff" letter-spacing="5">ELECTRONIC BEER LINE MANAGEMENT</text>

  <defs>
    <linearGradient id="ip_floorG" x1="600" y1="750" x2="600" y2="960" gradientUnits="userSpaceOnUse">
      <stop offset="0%" stop-color="#111111"/>
      <stop offset="100%" stop-color="#0A0A0A"/>
    </linearGradient>
  </defs>
</svg>
