<?xml version="1.0" encoding="UTF-8"?>
<svg class="product-render"  viewBox="0 0 1200 1200" fill="none" xmlns="http://www.w3.org/2000/svg">
  <rect width="1200" height="1200" fill="#0a0a0a"/>

  <!-- Grid background -->
  <pattern id="vb_grid" width="40" height="40" patternUnits="userSpaceOnUse">
    <line x1="40" y1="0" x2="40" y2="40" stroke="rgba(255,255,255,.015)" stroke-width="0.5"/>
    <line x1="0" y1="40" x2="40" y2="40" stroke="rgba(255,255,255,.015)" stroke-width="0.5"/>
  </pattern>
  <rect width="1200" height="960" fill="url(#vb_grid)"/>

  <!-- ═══════════════════════════════════════════════════ -->
  <!--  LEFT: FACE-ON CROSS SECTION                        -->
  <!-- ═══════════════════════════════════════════════════ -->

  <text x="310" y="50" text-anchor="middle" font-family="Outfit,sans-serif" font-size="22" fill="#ffffff" letter-spacing="3">FRONT VIEW — CROSS SECTION</text>

  <g transform="translate(310, 370)">
    <!-- Duct wall (round) -->
    <circle cx="0" cy="0" r="260" fill="none" stroke="#3a3e42" stroke-width="14"/>
    <circle cx="0" cy="0" r="269" fill="none" stroke="#1e2226" stroke-width="2"/>
    <circle cx="0" cy="0" r="253" fill="none" stroke="#222628" stroke-width="1"/>
    <!-- Duct interior -->
    <circle cx="0" cy="0" r="253" fill="#111111"/>

    <!-- Grease patches on walls -->
    <path d="M-180 -175 Q-170 -190, -155 -180" stroke="rgba(255,255,255,.06)" stroke-width="8" fill="none" stroke-linecap="round"/>
    <path d="M140 -205 Q155 -215, 170 -200" stroke="rgba(255,255,255,.05)" stroke-width="7" fill="none" stroke-linecap="round"/>
    <path d="M220 -60 Q235 -75, 240 -45" stroke="rgba(255,255,255,.06)" stroke-width="9" fill="none" stroke-linecap="round"/>
    <path d="M-230 50 Q-245 35, -235 70" stroke="rgba(255,255,255,.05)" stroke-width="7" fill="none" stroke-linecap="round"/>
    <path d="M160 190 Q175 180, 185 200" stroke="rgba(255,255,255,.04)" stroke-width="8" fill="none" stroke-linecap="round"/>
    <path d="M-100 230 Q-85 240, -75 225" stroke="rgba(255,255,255,.05)" stroke-width="6" fill="none" stroke-linecap="round"/>

    <!-- ═══ CENTRAL BODY ═══ -->
    <circle cx="0" cy="0" r="48" fill="#1a1e22" stroke="#3a3e42" stroke-width="2.5"/>
    <circle cx="0" cy="0" r="40" fill="#161a1e" stroke="#444" stroke-width="1.5"/>
    <!-- Inner detail ring -->
    <circle cx="0" cy="0" r="30" fill="#1e2226" stroke="#555" stroke-width="1"/>
    <!-- Center cap -->
    <circle cx="0" cy="0" r="12" fill="#222628" stroke="rgba(255,255,255,.1)" stroke-width="1"/>
    <circle cx="0" cy="0" r="5" fill="#2a2e32" stroke="rgba(255,255,255,.08)" stroke-width="0.5"/>
    
    <!-- FRONT CAMERA (center, facing viewer) -->
    <circle cx="0" cy="0" r="8" fill="#111111" stroke="#555" stroke-width="1"/>
    <circle cx="0" cy="0" r="4" fill="#111111" stroke="rgba(255,255,255,.15)" stroke-width="0.5">
      <animate attributeName="r" values="4;4.5;4" dur="2s" repeatCount="indefinite"/>
    </circle>
    <!-- Lens glint -->
    <circle cx="2" cy="-2" r="1" fill="rgba(255,255,255,.12)"/>

    <!-- Status LEDs around body -->
    <circle cx="22" cy="-20" r="2.5" fill="#bbb" opacity=".4">
      <animate attributeName="opacity" values=".4;.1;.4" dur="1.5s" repeatCount="indefinite"/>
    </circle>
    <circle cx="-22" cy="-20" r="2.5" fill="#888" opacity=".25">
      <animate attributeName="opacity" values=".25;.08;.25" dur="1.5s" begin="0.4s" repeatCount="indefinite"/>
    </circle>
    <circle cx="22" cy="20" r="2.5" fill="#888" opacity=".2">
      <animate attributeName="opacity" values=".2;.06;.2" dur="1.5s" begin="0.8s" repeatCount="indefinite"/>
    </circle>

    <!-- ═══ 4 LEGS (X pattern — THICK & ROBUST) ═══ -->

    <!-- Leg 1: top-right -->
    <line x1="34" y1="-34" x2="162" y2="-162" stroke="#2a2e32" stroke-width="14" stroke-linecap="round"/>
    <line x1="34" y1="-34" x2="162" y2="-162" stroke="#1e2226" stroke-width="10"/>
    <line x1="34" y1="-34" x2="162" y2="-162" stroke="rgba(255,255,255,.03)" stroke-width="2"/>
    <!-- Telescopic joint -->
    <circle cx="98" cy="-98" r="7" fill="#222628" stroke="#4a4e52" stroke-width="1.2"/>
    <circle cx="98" cy="-98" r="3" fill="#2a2e32" stroke="#555" stroke-width="0.5"/>
    <!-- Drive wheel at wall -->
    <circle cx="176" cy="-176" r="22" fill="#1e2226" stroke="#4a4e52" stroke-width="2"/>
    <circle cx="176" cy="-176" r="15" fill="#222628" stroke="#555" stroke-width="1.2"/>
    <circle cx="176" cy="-176" r="7" fill="#2a2e32" stroke="rgba(255,255,255,.08)" stroke-width="0.8"/>
    <!-- Tread pattern -->
    <line x1="165" y1="-183" x2="170" y2="-188" stroke="rgba(255,255,255,.06)" stroke-width="1.5"/>
    <line x1="183" y1="-165" x2="188" y2="-170" stroke="rgba(255,255,255,.06)" stroke-width="1.5"/>
    <line x1="169" y1="-169" x2="174" y2="-174" stroke="rgba(255,255,255,.05)" stroke-width="1"/>

    <!-- Leg 2: top-left -->
    <line x1="-34" y1="-34" x2="-162" y2="-162" stroke="#2a2e32" stroke-width="14" stroke-linecap="round"/>
    <line x1="-34" y1="-34" x2="-162" y2="-162" stroke="#1e2226" stroke-width="10"/>
    <line x1="-34" y1="-34" x2="-162" y2="-162" stroke="rgba(255,255,255,.03)" stroke-width="2"/>
    <circle cx="-98" cy="-98" r="7" fill="#222628" stroke="#4a4e52" stroke-width="1.2"/>
    <circle cx="-98" cy="-98" r="3" fill="#2a2e32" stroke="#555" stroke-width="0.5"/>
    <circle cx="-176" cy="-176" r="22" fill="#1e2226" stroke="#4a4e52" stroke-width="2"/>
    <circle cx="-176" cy="-176" r="15" fill="#222628" stroke="#555" stroke-width="1.2"/>
    <circle cx="-176" cy="-176" r="7" fill="#2a2e32" stroke="rgba(255,255,255,.08)" stroke-width="0.8"/>
    <line x1="-188" y1="-170" x2="-183" y2="-165" stroke="rgba(255,255,255,.06)" stroke-width="1.5"/>
    <line x1="-170" y1="-188" x2="-165" y2="-183" stroke="rgba(255,255,255,.06)" stroke-width="1.5"/>

    <!-- Leg 3: bottom-left -->
    <line x1="-34" y1="34" x2="-162" y2="162" stroke="#2a2e32" stroke-width="14" stroke-linecap="round"/>
    <line x1="-34" y1="34" x2="-162" y2="162" stroke="#1e2226" stroke-width="10"/>
    <line x1="-34" y1="34" x2="-162" y2="162" stroke="rgba(255,255,255,.03)" stroke-width="2"/>
    <circle cx="-98" cy="98" r="7" fill="#222628" stroke="#4a4e52" stroke-width="1.2"/>
    <circle cx="-98" cy="98" r="3" fill="#2a2e32" stroke="#555" stroke-width="0.5"/>
    <circle cx="-176" cy="176" r="22" fill="#1e2226" stroke="#4a4e52" stroke-width="2"/>
    <circle cx="-176" cy="176" r="15" fill="#222628" stroke="#555" stroke-width="1.2"/>
    <circle cx="-176" cy="176" r="7" fill="#2a2e32" stroke="rgba(255,255,255,.08)" stroke-width="0.8"/>
    <line x1="-188" y1="170" x2="-183" y2="165" stroke="rgba(255,255,255,.06)" stroke-width="1.5"/>
    <line x1="-165" y1="183" x2="-170" y2="188" stroke="rgba(255,255,255,.06)" stroke-width="1.5"/>

    <!-- Leg 4: bottom-right -->
    <line x1="34" y1="34" x2="162" y2="162" stroke="#2a2e32" stroke-width="14" stroke-linecap="round"/>
    <line x1="34" y1="34" x2="162" y2="162" stroke="#1e2226" stroke-width="10"/>
    <line x1="34" y1="34" x2="162" y2="162" stroke="rgba(255,255,255,.03)" stroke-width="2"/>
    <circle cx="98" cy="98" r="7" fill="#222628" stroke="#4a4e52" stroke-width="1.2"/>
    <circle cx="98" cy="98" r="3" fill="#2a2e32" stroke="#555" stroke-width="0.5"/>
    <circle cx="176" cy="176" r="22" fill="#1e2226" stroke="#4a4e52" stroke-width="2"/>
    <circle cx="176" cy="176" r="15" fill="#222628" stroke="#555" stroke-width="1.2"/>
    <circle cx="176" cy="176" r="7" fill="#2a2e32" stroke="rgba(255,255,255,.08)" stroke-width="0.8"/>
    <line x1="188" y1="170" x2="183" y2="165" stroke="rgba(255,255,255,.06)" stroke-width="1.5"/>
    <line x1="165" y1="183" x2="170" y2="188" stroke="rgba(255,255,255,.06)" stroke-width="1.5"/>

    <!-- ═══ SPRAYING ARM (orbits 360° IN FRONT of legs) ═══ -->
    <!-- Orbit track -->
    <circle cx="0" cy="0" r="210" fill="none" stroke="rgba(255,255,255,.06)" stroke-width="1.5" stroke-dasharray="10 8"/>

    <g>
      <animateTransform attributeName="transform" type="rotate" values="0;360" dur="6s" repeatCount="indefinite"/>
      
      <!-- Heavy radial arm from center to nozzle -->
      <line x1="0" y1="0" x2="0" y2="-210" stroke="#4a4e52" stroke-width="8" stroke-linecap="round"/>
      <line x1="0" y1="0" x2="0" y2="-210" stroke="#3a3e42" stroke-width="5"/>
      <line x1="0" y1="0" x2="0" y2="-210" stroke="rgba(255,255,255,.04)" stroke-width="1.5"/>
      <!-- Arm joints -->
      <circle cx="0" cy="-70" r="6" fill="#222628" stroke="#4a4e52" stroke-width="1"/>
      <circle cx="0" cy="-140" r="6" fill="#222628" stroke="#4a4e52" stroke-width="1"/>
      
      <!-- Nozzle head (substantial) -->
      <rect x="-16" y="-230" width="32" height="24" rx="4" fill="#222628" stroke="#4a4e52" stroke-width="2"/>
      <rect x="-12" y="-240" width="24" height="14" rx="3" fill="#2a2e32" stroke="#555" stroke-width="1.2"/>
      <rect x="-8" y="-248" width="16" height="10" rx="2" fill="#333" stroke="rgba(255,255,255,.12)" stroke-width="0.8"/>
      <!-- Nozzle bore -->
      <circle cx="0" cy="-248" r="4" fill="#1a1e22" stroke="rgba(255,255,255,.1)" stroke-width="0.5"/>
      
      <!-- DRY ICE BLAST from nozzle -->
      <!-- Pellet stream -->
      <circle cx="-4" cy="-255" r="2" fill="rgba(255,255,255,.12)">
        <animate attributeName="cy" values="-255;-270;-255" dur="0.4s" repeatCount="indefinite"/>
        <animate attributeName="opacity" values=".12;.04;.12" dur="0.4s" repeatCount="indefinite"/>
      </circle>
      <circle cx="4" cy="-258" r="1.5" fill="rgba(255,255,255,.1)">
        <animate attributeName="cy" values="-258;-275;-258" dur="0.5s" repeatCount="indefinite"/>
        <animate attributeName="opacity" values=".1;.03;.1" dur="0.5s" repeatCount="indefinite"/>
      </circle>
      <circle cx="0" cy="-252" r="2.5" fill="rgba(255,255,255,.08)">
        <animate attributeName="cy" values="-252;-268;-252" dur="0.35s" repeatCount="indefinite"/>
        <animate attributeName="opacity" values=".08;.02;.08" dur="0.35s" repeatCount="indefinite"/>
      </circle>
      <circle cx="-6" cy="-260" r="1.5" fill="rgba(255,255,255,.06)">
        <animate attributeName="cy" values="-260;-278;-260" dur="0.6s" repeatCount="indefinite"/>
      </circle>
      <circle cx="6" cy="-262" r="1.8" fill="rgba(255,255,255,.07)">
        <animate attributeName="cy" values="-262;-280;-262" dur="0.45s" repeatCount="indefinite"/>
      </circle>

      <!-- Dust cloud (grease/carbon turned to dust) -->
      <circle cx="-15" cy="-268" r="4" fill="rgba(255,255,255,.03)">
        <animate attributeName="r" values="4;10;4" dur="1s" repeatCount="indefinite"/>
        <animate attributeName="opacity" values=".03;.01;.03" dur="1s" repeatCount="indefinite"/>
      </circle>
      <circle cx="12" cy="-272" r="3" fill="rgba(255,255,255,.025)">
        <animate attributeName="r" values="3;8;3" dur="1.2s" repeatCount="indefinite"/>
        <animate attributeName="opacity" values=".025;.008;.025" dur="1.2s" repeatCount="indefinite"/>
      </circle>
    </g>

    <!-- Rotation arrows on orbit path -->
    <g transform="translate(25, -212)">
      <polygon points="0,-5 8,0 0,5" fill="rgba(255,255,255,.12)" transform="rotate(12)"/>
    </g>
    <g transform="translate(212, 25)">
      <polygon points="0,-5 8,0 0,5" fill="rgba(255,255,255,.1)" transform="rotate(102)"/>
    </g>
    <g transform="translate(-25, 212)">
      <polygon points="0,-5 8,0 0,5" fill="rgba(255,255,255,.1)" transform="rotate(192)"/>
    </g>
    <g transform="translate(-212, -25)">
      <polygon points="0,-5 8,0 0,5" fill="rgba(255,255,255,.1)" transform="rotate(282)"/>
    </g>
  </g>

  <!-- Face-on annotations -->
  <text x="28" y="105" font-family="DM Sans,sans-serif" font-size="14" fill="#ffffff" letter-spacing="1.5">DRY ICE ARM — 360° ORBIT</text>



  <!-- ═══════════════════════════════════════════════════ -->
  <!--  RIGHT: SIDE CUTAWAY — VERTICAL DUCT                -->
  <!-- ═══════════════════════════════════════════════════ -->

  <text x="900" y="50" text-anchor="middle" font-family="Outfit,sans-serif" font-size="22" fill="#ffffff" letter-spacing="3">SIDE VIEW — VERTICAL CLIMB</text>

  <!-- Duct walls -->
  <rect x="748" y="75" width="16" height="680" fill="#161a1e" stroke="#3a3e42" stroke-width="1.5"/>
  <rect x="1038" y="75" width="16" height="680" fill="#161a1e" stroke="#3a3e42" stroke-width="1.5"/>
  <!-- Duct interior -->
  <rect x="764" y="75" width="274" height="680" fill="#111111"/>

  <!-- Rivets -->
  <circle cx="756" cy="150" r="1.8" fill="#1e2226" stroke="#333" stroke-width="0.5"/>
  <circle cx="756" cy="300" r="1.8" fill="#1e2226" stroke="#333" stroke-width="0.5"/>
  <circle cx="756" cy="450" r="1.8" fill="#1e2226" stroke="#333" stroke-width="0.5"/>
  <circle cx="756" cy="600" r="1.8" fill="#1e2226" stroke="#333" stroke-width="0.5"/>
  <circle cx="1046" cy="150" r="1.8" fill="#1e2226" stroke="#333" stroke-width="0.5"/>
  <circle cx="1046" cy="300" r="1.8" fill="#1e2226" stroke="#333" stroke-width="0.5"/>
  <circle cx="1046" cy="450" r="1.8" fill="#1e2226" stroke="#333" stroke-width="0.5"/>
  <circle cx="1046" cy="600" r="1.8" fill="#1e2226" stroke="#333" stroke-width="0.5"/>
  <!-- Seams -->
  <line x1="764" y1="250" x2="1038" y2="250" stroke="rgba(255,255,255,.03)" stroke-width="0.5"/>
  <line x1="764" y1="450" x2="1038" y2="450" stroke="rgba(255,255,255,.03)" stroke-width="0.5"/>

  <!-- Grease on FULL duct walls (reappears when robot resets) -->
  <g>
    <!-- Grease visibility: visible during climb, stays visible, reappears on reset -->
    <!-- Left wall grease -->
    <rect x="764" y="75" width="10" height="680" fill="rgba(255,255,255,.035)"/>
    <rect x="764" y="90" width="14" height="45" fill="rgba(255,255,255,.055)"/>
    <rect x="764" y="160" width="12" height="55" fill="rgba(255,255,255,.05)"/>
    <rect x="764" y="250" width="10" height="40" fill="rgba(255,255,255,.06)"/>
    <rect x="764" y="340" width="13" height="50" fill="rgba(255,255,255,.05)"/>
    <rect x="764" y="440" width="11" height="35" fill="rgba(255,255,255,.055)"/>
    <rect x="764" y="530" width="14" height="50" fill="rgba(255,255,255,.05)"/>
    <rect x="764" y="630" width="10" height="40" fill="rgba(255,255,255,.06)"/>
    <!-- Right wall grease -->
    <rect x="1028" y="75" width="10" height="680" fill="rgba(255,255,255,.035)"/>
    <rect x="1024" y="100" width="14" height="50" fill="rgba(255,255,255,.05)"/>
    <rect x="1026" y="180" width="12" height="45" fill="rgba(255,255,255,.055)"/>
    <rect x="1024" y="280" width="14" height="40" fill="rgba(255,255,255,.06)"/>
    <rect x="1026" y="370" width="12" height="50" fill="rgba(255,255,255,.05)"/>
    <rect x="1024" y="480" width="14" height="35" fill="rgba(255,255,255,.055)"/>
    <rect x="1026" y="560" width="12" height="55" fill="rgba(255,255,255,.05)"/>
    <rect x="1024" y="660" width="14" height="35" fill="rgba(255,255,255,.06)"/>
  </g>

  <!-- Clean wipe — grows upward behind robot, snaps back on reset -->
  <!-- 10s cycle: 0-80% climb, 80-80.1% snap, 80.1-100% pause at bottom -->
  <rect x="764" y="755" width="274" height="0" fill="#111111">
    <animate attributeName="y" values="755;155;755;755" keyTimes="0;0.8;0.801;1" dur="18s" repeatCount="indefinite"/>
    <animate attributeName="height" values="0;600;0;0" keyTimes="0;0.8;0.801;1" dur="18s" repeatCount="indefinite"/>
  </rect>

  <!-- GHOST TRAIL — fade in as robot passes, reset on loop -->
  <!-- Ghost 1 (bottom) -->
  <g transform="translate(901, 700)">
    <animate attributeName="opacity" values="0;0;.08;.08;.08;0" keyTimes="0;0.08;0.12;0.79;0.801;1" dur="18s" repeatCount="indefinite"/>
    <rect x="-28" y="-22" width="56" height="44" rx="5" fill="#1a1e22" stroke="#3a3e42" stroke-width="1"/>
    <line x1="-28" y1="0" x2="-120" y2="0" stroke="#2a2e32" stroke-width="6" stroke-linecap="round"/>
    <line x1="28" y1="0" x2="120" y2="0" stroke="#2a2e32" stroke-width="6" stroke-linecap="round"/>
    <ellipse cx="0" cy="-36" rx="115" ry="22" fill="none" stroke="#3a3e42" stroke-width="2"/>
  </g>
  <!-- Ghost 2 -->
  <g transform="translate(901, 550)">
    <animate attributeName="opacity" values="0;0;.1;.1;.1;0" keyTimes="0;0.28;0.32;0.79;0.801;1" dur="18s" repeatCount="indefinite"/>
    <rect x="-28" y="-22" width="56" height="44" rx="5" fill="#1a1e22" stroke="#3a3e42" stroke-width="1"/>
    <line x1="-28" y1="0" x2="-120" y2="0" stroke="#2a2e32" stroke-width="6" stroke-linecap="round"/>
    <line x1="28" y1="0" x2="120" y2="0" stroke="#2a2e32" stroke-width="6" stroke-linecap="round"/>
    <ellipse cx="0" cy="-36" rx="115" ry="22" fill="none" stroke="#3a3e42" stroke-width="2"/>
  </g>
  <!-- Ghost 3 -->
  <g transform="translate(901, 400)">
    <animate attributeName="opacity" values="0;0;.12;.12;.12;0" keyTimes="0;0.5;0.54;0.79;0.801;1" dur="18s" repeatCount="indefinite"/>
    <rect x="-28" y="-22" width="56" height="44" rx="5" fill="#1a1e22" stroke="#3a3e42" stroke-width="1"/>
    <line x1="-28" y1="0" x2="-120" y2="0" stroke="#2a2e32" stroke-width="6" stroke-linecap="round"/>
    <line x1="28" y1="0" x2="120" y2="0" stroke="#2a2e32" stroke-width="6" stroke-linecap="round"/>
    <ellipse cx="0" cy="-36" rx="115" ry="22" fill="none" stroke="#3a3e42" stroke-width="2"/>
  </g>

  <!-- ROBOT — smooth climb bottom to top, instant snap back -->
  <!-- 10s: climb 0-80%, snap 80-80.1%, pause 80.1-100% -->
  <g>
    <animateTransform attributeName="transform" type="translate" 
      values="901,700;901,155;901,700;901,700" 
      keyTimes="0;0.8;0.801;1" 
      dur="18s" repeatCount="indefinite"/>

    <!-- Upward direction indicator -->
    <line x1="0" y1="50" x2="0" y2="-55" stroke="rgba(255,255,255,.07)" stroke-width="1.5" stroke-dasharray="6 5">
      <animate attributeName="stroke-dashoffset" values="0;-22" dur="1s" repeatCount="indefinite"/>
    </line>
    <polygon points="-5,-55 0,-68 5,-55" fill="rgba(255,255,255,.1)">
      <animate attributeName="opacity" values=".1;.18;.1" dur="1s" repeatCount="indefinite"/>
    </polygon>

    <!-- Body -->
    <rect x="-32" y="-28" width="64" height="56" rx="6" fill="#1a1e22" stroke="#3a3e42" stroke-width="1.5"/>
    <rect x="-36" y="-32" width="72" height="7" rx="2" fill="#1e2226" stroke="#444" stroke-width="1"/>
    <rect x="-36" y="25" width="72" height="7" rx="2" fill="#1e2226" stroke="#444" stroke-width="1"/>
    <line x1="-28" y1="-24" x2="-28" y2="22" stroke="rgba(255,255,255,.04)" stroke-width="0.5"/>
    <line x1="28" y1="-24" x2="28" y2="22" stroke="rgba(255,255,255,.03)" stroke-width="0.5"/>

    <!-- FRONT CAMERA (top, facing direction of travel) -->
    <circle cx="0" cy="-18" r="8" fill="#111111" stroke="#444" stroke-width="1"/>
    <circle cx="0" cy="-18" r="4.5" fill="#111111" stroke="#555" stroke-width="0.6"/>
    <circle cx="0" cy="-18" r="2" fill="#1a1e22" stroke="rgba(255,255,255,.12)" stroke-width="0.3">
      <animate attributeName="r" values="2;2.5;2" dur="2s" repeatCount="indefinite"/>
    </circle>
    <circle cx="1.5" cy="-19.5" r="0.8" fill="rgba(255,255,255,.1)"/>

    <!-- REAR CAMERA (bottom, facing behind) -->
    <circle cx="0" cy="16" r="6" fill="#111111" stroke="#444" stroke-width="0.8"/>
    <circle cx="0" cy="16" r="3.5" fill="#111111" stroke="#555" stroke-width="0.5"/>
    <circle cx="0" cy="16" r="1.5" fill="#1a1e22" stroke="rgba(255,255,255,.1)" stroke-width="0.3">
      <animate attributeName="r" values="1.5;2;1.5" dur="2s" begin="0.5s" repeatCount="indefinite"/>
    </circle>

    <!-- Status LEDs -->
    <circle cx="-16" cy="-4" r="2" fill="#bbb" opacity=".4">
      <animate attributeName="opacity" values=".4;.1;.4" dur="1.5s" repeatCount="indefinite"/>
    </circle>
    <circle cx="-9" cy="-4" r="2" fill="#888" opacity=".25">
      <animate attributeName="opacity" values=".25;.08;.25" dur="1.5s" begin="0.3s" repeatCount="indefinite"/>
    </circle>

    <!-- Label -->
    <rect x="-14" y="2" width="28" height="10" rx="1.5" fill="#141618" stroke="rgba(255,255,255,.05)" stroke-width="0.3"/>
    <text x="0" y="10" text-anchor="middle" font-family="Outfit,sans-serif" font-size="4.5" fill="#ffffff" letter-spacing="1">VENTBOT</text>

    <!-- THICK legs extending to walls -->
    <line x1="-32" y1="-12" x2="-130" y2="-12" stroke="#2a2e32" stroke-width="8" stroke-linecap="round"/>
    <line x1="-32" y1="-12" x2="-130" y2="-12" stroke="#1e2226" stroke-width="5"/>
    <circle cx="-75" cy="-12" r="4" fill="#222628" stroke="#444" stroke-width="0.8"/>
    <rect x="-137" y="-20" width="10" height="16" rx="3" fill="#222628" stroke="#4a4e52" stroke-width="1"/>

    <line x1="-32" y1="12" x2="-130" y2="12" stroke="#2a2e32" stroke-width="8" stroke-linecap="round"/>
    <line x1="-32" y1="12" x2="-130" y2="12" stroke="#1e2226" stroke-width="5"/>
    <circle cx="-75" cy="12" r="4" fill="#222628" stroke="#444" stroke-width="0.8"/>
    <rect x="-137" y="4" width="10" height="16" rx="3" fill="#222628" stroke="#4a4e52" stroke-width="1"/>

    <line x1="32" y1="-12" x2="130" y2="-12" stroke="#2a2e32" stroke-width="8" stroke-linecap="round"/>
    <line x1="32" y1="-12" x2="130" y2="-12" stroke="#1e2226" stroke-width="5"/>
    <circle cx="75" cy="-12" r="4" fill="#222628" stroke="#444" stroke-width="0.8"/>
    <rect x="127" y="-20" width="10" height="16" rx="3" fill="#222628" stroke="#4a4e52" stroke-width="1"/>

    <line x1="32" y1="12" x2="130" y2="12" stroke="#2a2e32" stroke-width="8" stroke-linecap="round"/>
    <line x1="32" y1="12" x2="130" y2="12" stroke="#1e2226" stroke-width="5"/>
    <circle cx="75" cy="12" r="4" fill="#222628" stroke="#444" stroke-width="0.8"/>
    <rect x="127" y="4" width="10" height="16" rx="3" fill="#222628" stroke="#4a4e52" stroke-width="1"/>

    <!-- SPRAY ARM — elliptical orbit (circle seen from side) -->
    <ellipse cx="0" cy="-48" rx="130" ry="44" fill="none" stroke="#3a3e42" stroke-width="3" stroke-dasharray="8 6"/>
    <ellipse cx="0" cy="-48" rx="130" ry="44" fill="none" stroke="rgba(255,255,255,.03)" stroke-width="1"/>

    <!-- Orbiting nozzle -->
    <g>
      <animateMotion dur="3s" repeatCount="indefinite" rotate="auto"
        path="M130,-48 A130,44 0 1,1 -130,-48 A130,44 0 1,1 130,-48"/>
      
      <rect x="-12" y="-10" width="24" height="16" rx="3" fill="#222628" stroke="#4a4e52" stroke-width="1.5"/>
      <rect x="-8" y="-18" width="16" height="10" rx="2" fill="#2a2e32" stroke="#555" stroke-width="1"/>
      <circle cx="0" cy="-18" r="3" fill="#1a1e22" stroke="rgba(255,255,255,.1)" stroke-width="0.5"/>
      
      <!-- Dry ice pellets -->
      <circle cx="-3" cy="-24" r="1.5" fill="rgba(255,255,255,.1)">
        <animate attributeName="cy" values="-24;-38;-24" dur="0.35s" repeatCount="indefinite"/>
        <animate attributeName="opacity" values=".1;.03;.1" dur="0.35s" repeatCount="indefinite"/>
      </circle>
      <circle cx="3" cy="-22" r="1.2" fill="rgba(255,255,255,.08)">
        <animate attributeName="cy" values="-22;-36;-22" dur="0.45s" repeatCount="indefinite"/>
      </circle>
      <circle cx="0" cy="-26" r="1.8" fill="rgba(255,255,255,.07)">
        <animate attributeName="cy" values="-26;-42;-26" dur="0.3s" repeatCount="indefinite"/>
      </circle>
      <!-- Dust cloud -->
      <circle cx="-8" cy="-38" r="3" fill="rgba(255,255,255,.03)">
        <animate attributeName="r" values="3;8;3" dur="0.8s" repeatCount="indefinite"/>
        <animate attributeName="opacity" values=".03;.005;.03" dur="0.8s" repeatCount="indefinite"/>
      </circle>
    </g>

    <!-- Rotation arrows on ellipse -->
    <g transform="translate(80, -82)">
      <polygon points="0,-4 6,0 0,4" fill="rgba(255,255,255,.1)" transform="rotate(-30)"/>
    </g>
    <g transform="translate(-80, -14)">
      <polygon points="0,-4 6,0 0,4" fill="rgba(255,255,255,.1)" transform="rotate(150)"/>
    </g>
  </g>





  <!-- ═══════════════════════════════════════════════════ -->
  <!--  BOTTOM: SPECS & STEPS                              -->
  <!-- ═══════════════════════════════════════════════════ -->

  <!-- Steps -->
  <g transform="translate(310, 720)">
    <text x="0" y="0" text-anchor="middle" font-family="DM Sans,sans-serif" font-size="14" fill="#ffffff" letter-spacing="2">① INSERT — LEGS GRIP WALLS</text>
    <text x="0" y="22" text-anchor="middle" font-family="DM Sans,sans-serif" font-size="14" fill="#ffffff" letter-spacing="2">② DRY ICE ARM BLASTS GREASE</text>
    <text x="0" y="44" text-anchor="middle" font-family="DM Sans,sans-serif" font-size="14" fill="#ffffff" letter-spacing="2">③ TRAVERSES UP TO 70M</text>
    <text x="0" y="66" text-anchor="middle" font-family="DM Sans,sans-serif" font-size="14" fill="#ffffff" letter-spacing="2">④ CAMERAS DOCUMENT RESULTS</text>
  </g>

  <!-- ═══ BRANDING ═══ -->
  <text x="600" y="860" text-anchor="middle" font-family="Outfit,sans-serif" font-size="48" fill="#ffffff" letter-spacing="12" font-weight="700">VENTBOT</text>
  <text x="600" y="892" text-anchor="middle" font-family="DM Sans,sans-serif" font-size="16" fill="#ffffff" letter-spacing="5">ROBOTIC DUCT CLEANING</text>

  <!-- ═══ DUCT COMPATIBILITY — FULL WIDTH ═══ -->
  <g transform="translate(0, 930)">
    <line x1="40" y1="0" x2="1160" y2="0" stroke="rgba(255,255,255,.06)" stroke-width="1"/>
    <text x="600" y="30" text-anchor="middle" font-family="Outfit,sans-serif" font-size="18" fill="#ffffff" letter-spacing="5" font-weight="600">DUCT COMPATIBILITY</text>

    <!-- SQUARE — 20% bigger -->
    <g transform="translate(180, 105)">
      <rect x="-48" y="-48" width="96" height="96" fill="none" stroke="#ffffff" stroke-width="2" rx="2"/>
      <rect x="-41" y="-41" width="82" height="82" fill="none" stroke="rgba(255,255,255,.25)" stroke-width="1" rx="1"/>
      <circle cx="0" cy="0" r="12" fill="none" stroke="rgba(255,255,255,.4)" stroke-width="1.5"/>
      <line x1="-10" y1="0" x2="-41" y2="0" stroke="rgba(255,255,255,.3)" stroke-width="1" stroke-dasharray="4 3"/>
      <line x1="10" y1="0" x2="41" y2="0" stroke="rgba(255,255,255,.3)" stroke-width="1" stroke-dasharray="4 3"/>
      <line x1="0" y1="-10" x2="0" y2="-41" stroke="rgba(255,255,255,.3)" stroke-width="1" stroke-dasharray="4 3"/>
      <line x1="0" y1="10" x2="0" y2="41" stroke="rgba(255,255,255,.3)" stroke-width="1" stroke-dasharray="4 3"/>
      <text x="0" y="72" text-anchor="middle" font-family="Outfit,sans-serif" font-size="14" fill="#ffffff" letter-spacing="3" font-weight="600">SQUARE</text>
    </g>

    <!-- RECTANGULAR — 20% bigger -->
    <g transform="translate(600, 105)">
      <rect x="-72" y="-42" width="144" height="84" fill="none" stroke="#ffffff" stroke-width="2" rx="2"/>
      <rect x="-65" y="-35" width="130" height="70" fill="none" stroke="rgba(255,255,255,.25)" stroke-width="1" rx="1"/>
      <circle cx="0" cy="0" r="12" fill="none" stroke="rgba(255,255,255,.4)" stroke-width="1.5"/>
      <line x1="-10" y1="0" x2="-65" y2="0" stroke="rgba(255,255,255,.3)" stroke-width="1" stroke-dasharray="4 3"/>
      <line x1="10" y1="0" x2="65" y2="0" stroke="rgba(255,255,255,.3)" stroke-width="1" stroke-dasharray="4 3"/>
      <line x1="0" y1="-10" x2="0" y2="-35" stroke="rgba(255,255,255,.3)" stroke-width="1" stroke-dasharray="4 3"/>
      <line x1="0" y1="10" x2="0" y2="35" stroke="rgba(255,255,255,.3)" stroke-width="1" stroke-dasharray="4 3"/>
      <text x="0" y="67" text-anchor="middle" font-family="Outfit,sans-serif" font-size="14" fill="#ffffff" letter-spacing="3" font-weight="600">RECTANGULAR</text>
    </g>

    <!-- ROUND — 20% bigger -->
    <g transform="translate(1020, 105)">
      <circle cx="0" cy="0" r="48" fill="none" stroke="#ffffff" stroke-width="2"/>
      <circle cx="0" cy="0" r="41" fill="none" stroke="rgba(255,255,255,.25)" stroke-width="1"/>
      <circle cx="0" cy="0" r="12" fill="none" stroke="rgba(255,255,255,.4)" stroke-width="1.5"/>
      <line x1="-10" y1="0" x2="-41" y2="0" stroke="rgba(255,255,255,.3)" stroke-width="1" stroke-dasharray="4 3"/>
      <line x1="10" y1="0" x2="41" y2="0" stroke="rgba(255,255,255,.3)" stroke-width="1" stroke-dasharray="4 3"/>
      <line x1="0" y1="-10" x2="0" y2="-41" stroke="rgba(255,255,255,.3)" stroke-width="1" stroke-dasharray="4 3"/>
      <line x1="0" y1="10" x2="0" y2="41" stroke="rgba(255,255,255,.3)" stroke-width="1" stroke-dasharray="4 3"/>
      <text x="0" y="72" text-anchor="middle" font-family="Outfit,sans-serif" font-size="14" fill="#ffffff" letter-spacing="3" font-weight="600">ROUND</text>
    </g>

    <text x="600" y="200" text-anchor="middle" font-family="DM Sans,sans-serif" font-size="16" fill="#ffffff" letter-spacing="3">250mm — 900mm DIAMETER RANGE</text>
  </g>
</svg>
